<svg width="31" height="30" viewBox="0 0 31 30" fill="none" xmlns="http://www.w3.org/2000/svg">
<path d="M22.0062 5.99979L22.0062 23.9998C22.0057 24.5301 21.7948 25.0385 21.4199 25.4134C21.0449 25.7884 20.5365 25.9993 20.0062 25.9998L16.0062 25.9998C15.476 25.9993 14.9676 25.7884 14.5926 25.4134C14.2176 25.0385 14.0068 24.5301 14.0062 23.9998L14.0062 5.99979C14.0068 5.46952 14.2176 4.96112 14.5926 4.58616C14.9676 4.2112 15.476 4.00032 16.0062 3.99979L20.0062 3.99979C20.5365 4.00032 21.0449 4.2112 21.4199 4.58616C21.7948 4.96112 22.0057 5.46952 22.0062 5.99979ZM16.0062 23.9998L20.0062 23.9998L20.0062 5.99979L16.0062 5.99979L16.0062 23.9998ZM16.0062 5.99979L16.0062 23.9998C16.0057 24.5301 15.7948 25.0384 15.4199 25.4134C15.0449 25.7883 14.5365 25.9992 14.0062 25.9998L10.0062 25.9998C9.47596 25.9992 8.96756 25.7883 8.5926 25.4134C8.21764 25.0384 8.00675 24.53 8.00623 23.9998L8.00622 5.99977C8.00675 5.4695 8.21764 4.9611 8.5926 4.58614C8.96755 4.21118 9.47595 4.0003 10.0062 3.99977L14.0062 3.99977C14.5365 4.0003 15.0449 4.21118 15.4199 4.58614C15.7948 4.9611 16.0057 5.46952 16.0062 5.99979ZM10.0062 23.9998L14.0062 23.9998L14.0062 5.99979L10.0062 5.99977L10.0062 23.9998ZM10.0062 5.99977L10.0062 23.9998C10.0057 24.53 9.79481 25.0384 9.41985 25.4134C9.0449 25.7883 8.5365 25.9992 8.00623 25.9998L4.00623 25.9998C3.47595 25.9992 2.96755 25.7883 2.5926 25.4134C2.21764 25.0384 2.00675 24.53 2.00623 23.9998L2.00622 5.99977C2.00675 5.4695 2.21764 4.9611 2.5926 4.58614C2.96755 4.21118 3.47595 4.0003 4.00622 3.99977L8.00622 3.99977C8.5365 4.0003 9.0449 4.21118 9.41985 4.58614C9.79481 4.9611 10.0057 5.4695 10.0062 5.99977ZM4.00623 23.9998L8.00623 23.9998L8.00622 5.99977L4.00622 5.99977L4.00623 23.9998Z" fill="white"/>
<path d="M28.0062 6.00001L28.0062 24C28.0057 24.5303 27.7948 25.0387 27.4199 25.4136C27.0449 25.7886 26.5365 25.9995 26.0062 26L22.0062 26C21.476 25.9995 20.9676 25.7886 20.5926 25.4136C20.2176 25.0387 20.0068 24.5301 20.0062 23.9998L20.0062 5.99979C20.0068 5.46952 20.2176 4.96134 20.5926 4.58638C20.9676 4.21142 21.476 4.00054 22.0062 4.00001L26.0062 4.00001C26.5365 4.00054 27.0449 4.21142 27.4199 4.58638C27.7948 4.96134 28.0057 5.46974 28.0062 6.00001ZM22.0062 23.9998L26.0062 24L26.0062 6.00001L22.0062 5.99979L22.0062 23.9998Z" fill="white"/>
</svg>
