<svg width="27" height="22" viewBox="0 0 27 22" fill="none" xmlns="http://www.w3.org/2000/svg">
<path d="M20.0093 1.99979L20.0093 19.9998C20.0087 20.5301 19.7979 21.0385 19.4229 21.4134C19.0479 21.7884 18.5395 21.9993 18.0093 21.9998L14.0093 21.9998C13.479 21.9993 12.9706 21.7884 12.5956 21.4134C12.2207 21.0385 12.0098 20.5301 12.0093 19.9998L12.0093 1.99979C12.0098 1.46952 12.2207 0.961118 12.5956 0.58616C12.9706 0.211202 13.479 0.000317938 14.0093 -0.000212328L18.0093 -0.000212503C18.5395 0.000317717 19.0479 0.211202 19.4229 0.58616C19.7979 0.961118 20.0087 1.46952 20.0093 1.99979ZM14.0093 19.9998L18.0093 19.9998L18.0093 1.99979L14.0093 1.99979L14.0093 19.9998ZM14.0093 1.99979L14.0093 19.9998C14.0087 20.5301 13.7979 21.0384 13.4229 21.4134C13.0479 21.7883 12.5395 21.9992 12.0093 21.9998L8.00928 21.9998C7.47901 21.9992 6.97061 21.7883 6.59565 21.4134C6.22069 21.0384 6.00981 20.53 6.00928 19.9998L6.00928 1.99977C6.00981 1.4695 6.22069 0.961097 6.59565 0.586139C6.97061 0.211181 7.47901 0.000299127 8.00928 -0.000231139L12.0093 -0.000231314C12.5395 0.000298906 13.0479 0.211181 13.4229 0.586139C13.7979 0.961097 14.0087 1.46952 14.0093 1.99979ZM8.00928 19.9998L12.0093 19.9998L12.0093 1.99979L8.00928 1.99977L8.00928 19.9998ZM8.00928 1.99977L8.00928 19.9998C8.00875 20.53 7.79786 21.0384 7.42291 21.4134C7.04795 21.7883 6.53955 21.9992 6.00928 21.9998L2.00928 21.9998C1.47901 21.9992 0.970606 21.7883 0.595648 21.4134C0.22069 21.0384 0.00980676 20.53 0.00927726 19.9998L0.00927647 1.99977C0.00980592 1.4695 0.22069 0.961098 0.595648 0.58614C0.970606 0.211182 1.47901 0.000299389 2.00928 -0.000230877L6.00928 -0.000231051C6.53955 0.000299168 7.04795 0.211181 7.4229 0.586139C7.79786 0.961097 8.00875 1.4695 8.00928 1.99977ZM2.00928 19.9998L6.00928 19.9998L6.00928 1.99977L2.00928 1.99977L2.00928 19.9998Z" fill="#CDCDCD"/>
<path d="M26.0093 2.00001L26.0093 20C26.0087 20.5303 25.7979 21.0387 25.4229 21.4136C25.0479 21.7886 24.5395 21.9995 24.0093 22L20.0093 22C19.479 21.9995 18.9706 21.7886 18.5956 21.4136C18.2207 21.0387 18.0098 20.5301 18.0093 19.9998L18.0093 1.99979C18.0098 1.46952 18.2207 0.961339 18.5956 0.586381C18.9706 0.211423 19.479 0.000540836 20.0093 1.05699e-05L24.0093 1.0395e-05C24.5395 0.000540615 25.0479 0.211423 25.4229 0.586381C25.7979 0.961339 26.0087 1.46974 26.0093 2.00001ZM20.0093 19.9998L24.0093 20L24.0093 2.00001L20.0093 1.99979L20.0093 19.9998Z" fill="#CDCDCD"/>
</svg>
