<svg width="31" height="31" viewBox="0 0 31 31" fill="none" xmlns="http://www.w3.org/2000/svg">
<path d="M9.59578 23.8032H20.4291V23.5282C19.6708 22.8865 18.8312 22.4054 17.9104 22.085C16.9895 21.7638 16.0236 21.6032 15.0125 21.6032C14.0013 21.6032 13.0354 21.7638 12.1145 22.085C11.1937 22.4054 10.3541 22.8865 9.59578 23.5282V23.8032ZM7.42912 22.5382C8.40412 21.5665 9.53728 20.8009 10.8286 20.2414C12.1192 19.6826 13.5138 19.4032 15.0125 19.4032C16.5111 19.4032 17.906 19.6826 19.1974 20.2414C20.488 20.8009 21.6208 21.5665 22.5958 22.5382V8.40317H7.42912V22.5382ZM15.0125 17.2032C13.9652 17.2032 13.0715 16.8273 12.3312 16.0757C11.5909 15.324 11.2208 14.4165 11.2208 13.3532C11.2208 12.2898 11.5909 11.3823 12.3312 10.6307C13.0715 9.87901 13.9652 9.50317 15.0125 9.50317C16.0597 9.50317 16.9534 9.87901 17.6937 10.6307C18.434 11.3823 18.8041 12.2898 18.8041 13.3532C18.8041 14.4165 18.434 15.324 17.6937 16.0757C16.9534 16.8273 16.0597 17.2032 15.0125 17.2032ZM15.0125 15.0032C15.4638 15.0032 15.8473 14.8426 16.163 14.5214C16.4793 14.2009 16.6375 13.8115 16.6375 13.3532C16.6375 12.8948 16.4793 12.5054 16.163 12.185C15.8473 11.8638 15.4638 11.7032 15.0125 11.7032C14.5611 11.7032 14.1776 11.8638 13.862 12.185C13.5456 12.5054 13.3875 12.8948 13.3875 13.3532C13.3875 13.8115 13.5456 14.2009 13.862 14.5214C14.1776 14.8426 14.5611 15.0032 15.0125 15.0032ZM6.26245 26.0032C5.71017 26.0032 5.26245 25.5555 5.26245 25.0032V7.20317C5.26245 6.65089 5.71017 6.20317 6.26245 6.20317H8.51245V5.00317C8.51245 4.45089 8.96017 4.00317 9.51245 4.00317H9.67912C10.2314 4.00317 10.6791 4.45089 10.6791 5.00317V6.20317H19.3458V5.00317C19.3458 4.45089 19.7935 4.00317 20.3458 4.00317H20.5125C21.0647 4.00317 21.5125 4.45089 21.5125 5.00317V6.20317H23.7625C24.3147 6.20317 24.7625 6.65089 24.7625 7.20317V25.0032C24.7625 25.5555 24.3147 26.0032 23.7625 26.0032H6.26245Z" fill="white"/>
</svg>
