<svg width="17" height="13" viewBox="0 0 17 13" fill="none" xmlns="http://www.w3.org/2000/svg">
<path d="M8.49974 7.74512C8.30031 7.74545 8.10603 7.68355 7.94549 7.56851L0.376998 2.13455C0.278524 2.06378 0.195351 1.97485 0.132227 1.87284C0.069103 1.77082 0.0272642 1.65771 0.00909954 1.53998C-0.0275856 1.3022 0.0343859 1.05998 0.181381 0.866625C0.328377 0.673268 0.548355 0.544603 0.792923 0.508935C1.03749 0.473268 1.28661 0.53352 1.48549 0.676437L8.49974 5.70738L15.514 0.676438C15.6125 0.605672 15.7243 0.554458 15.8431 0.525718C15.962 0.496978 16.0855 0.491276 16.2066 0.508936C16.3277 0.526597 16.444 0.567275 16.5489 0.628647C16.6538 0.69002 16.7453 0.770885 16.8181 0.866626C16.8909 0.962367 16.9436 1.07111 16.9731 1.18664C17.0027 1.30218 17.0085 1.42224 16.9904 1.53998C16.9722 1.65772 16.9304 1.77082 16.8672 1.87284C16.8041 1.97486 16.721 2.06379 16.6225 2.13455L9.05398 7.56851C8.89344 7.68355 8.69917 7.74545 8.49974 7.74512Z" fill="#7AE229"/>
<path d="M8.49998 12.5C8.30055 12.5003 8.10628 12.4384 7.94574 12.3234L0.377242 6.88943C0.178366 6.74652 0.0460289 6.53264 0.00934368 6.29486C-0.0273415 6.05708 0.0346301 5.81487 0.181625 5.62151C0.328621 5.42815 0.548599 5.29949 0.793167 5.26382C1.03773 5.22815 1.28686 5.2884 1.48574 5.43132L8.49998 10.4623L15.5142 5.43132C15.7131 5.2884 15.9622 5.22815 16.2068 5.26382C16.4514 5.29949 16.6713 5.42815 16.8183 5.62151C16.9653 5.81487 17.0273 6.05708 16.9906 6.29486C16.9539 6.53264 16.8216 6.74652 16.6227 6.88943L9.05423 12.3234C8.89369 12.4384 8.69941 12.5003 8.49998 12.5Z" fill="#7AE229"/>
</svg>
